<?xml version="1.0" standalone="no"?>
<!DOCTYPE svg PUBLIC "-//W3C//DTD SVG 20010904//EN"
 "http://www.w3.org/TR/2001/REC-SVG-20010904/DTD/svg10.dtd">
<svg version="1.0" xmlns="http://www.w3.org/2000/svg"
 width="900.000000pt" height="900.000000pt" viewBox="0 0 900.000000 900.000000"
 preserveAspectRatio="xMidYMid meet">
<metadata>
Created by potrace 1.11, written by Peter Selinger 2001-2013
</metadata>
<g transform="translate(0.000000,900.000000) scale(0.100000,-0.100000)"
fill="#000000" stroke="none">
<path d="M5055 8567 c-68 -32 -143 -117 -198 -224 -47 -92 -234 -646 -566
-1678 -241 -752 -279 -883 -376 -1312 -48 -216 -55 -277 -30 -287 22 -8 31 20
50 147 22 142 170 665 463 1627 264 864 323 1051 394 1240 44 118 91 237 105
264 33 64 105 140 157 166 113 54 232 -8 244 -129 9 -101 -53 -174 -195 -227
-97 -36 -95 -35 -88 -123 20 -250 83 -479 190 -686 30 -59 55 -121 55 -137 0
-55 -61 -94 -236 -152 -45 -15 -90 -34 -100 -42 -17 -14 -12 -15 58 -11 71 4
87 9 220 74 144 70 198 110 198 144 0 11 -27 59 -59 107 -115 169 -186 327
-245 546 -38 138 -47 189 -38 202 4 6 36 20 72 33 160 57 249 141 250 237 0
51 -30 121 -69 162 -75 77 -172 99 -256 59z"/>
<path d="M4825 7250 c-43 -16 -27 34 -273 -860 -201 -731 -242 -888 -277
-1065 -43 -217 -43 -230 5 -230 39 0 36 -8 59 170 5 44 87 370 181 725 307
1153 331 1245 328 1256 -2 7 -11 9 -23 4z"/>
<path d="M4693 7214 c-17 -9 -36 -28 -42 -42 -65 -169 -546 -2004 -539 -2056
2 -15 10 -21 28 -21 27 0 21 -19 80 250 83 373 274 1069 471 1711 27 89 49
164 49 168 0 9 -12 7 -47 -10z"/>
<path d="M4559 7183 c-26 -28 -61 -145 -274 -904 -140 -498 -305 -1131 -305
-1168 0 -20 25 -35 41 -26 12 8 11 7 274 960 124 451 247 892 273 980 26 88
47 164 47 170 0 21 -32 14 -56 -12z"/>
<path d="M5202 6527 c-27 -29 -42 -105 -42 -213 l0 -84 -63 -63 c-84 -82 -117
-150 -117 -236 0 -86 14 -134 52 -177 38 -43 71 -61 145 -77 56 -13 58 -15 65
-53 12 -71 9 -110 -13 -138 -27 -35 -53 -36 -37 -1 24 52 -47 104 -101 74 -48
-27 -36 -96 21 -120 51 -21 107 -15 136 15 25 25 27 32 27 124 l1 97 46 47
c111 112 77 270 -64 293 -38 7 -38 7 -38 52 0 35 7 54 30 83 59 74 74 124 75
240 0 85 -4 111 -18 133 -23 35 -74 37 -105 4z m79 -39 c18 -33 4 -109 -32
-180 l-33 -63 -9 60 c-10 73 -3 170 13 190 18 22 48 18 61 -7z m-106 -449 c6
-26 2 -36 -23 -60 -40 -39 -49 -91 -28 -162 15 -52 40 -87 52 -74 4 3 1 20 -5
38 -17 49 -14 87 8 99 24 12 27 4 37 -97 6 -68 5 -73 -13 -73 -30 0 -105 43
-127 73 -14 20 -22 48 -24 97 -4 61 -1 75 22 114 25 44 74 88 88 80 3 -2 10
-18 13 -35z m132 -171 c21 -17 15 -71 -13 -112 -14 -21 -30 -34 -34 -29 -4 4
-11 45 -15 91 l-6 82 27 -11 c16 -5 34 -15 41 -21z"/>
<path d="M3520 6177 l0 -334 -83 -5 c-64 -3 -92 -10 -120 -27 -75 -46 -101
-138 -52 -186 58 -59 223 -7 270 85 12 24 16 80 18 284 1 140 5 257 9 261 7 7
84 -29 112 -54 67 -59 83 -208 33 -315 -31 -67 -33 -78 -12 -70 24 10 64 104
76 182 22 147 -27 238 -201 370 -3 2 -7 34 -10 70 -4 53 -9 67 -22 70 -17 3
-18 -18 -18 -331z"/>
<path d="M4070 4919 c-131 -11 -295 -34 -425 -61 -381 -78 -914 -298 -903
-373 2 -15 12 -21 37 -23 43 -4 67 6 231 94 164 89 326 159 491 212 254 83
429 102 761 84 299 -16 393 -38 528 -127 88 -57 153 -128 187 -200 48 -104 44
-267 -14 -535 -61 -284 -73 -400 -49 -452 20 -41 41 -54 241 -143 196 -88 533
-258 665 -336 177 -105 280 -229 314 -380 19 -83 26 -252 15 -354 -14 -124
-52 -224 -129 -339 -167 -248 -356 -422 -651 -597 -244 -145 -461 -229 -590
-229 -63 0 -99 -14 -99 -39 0 -93 340 -22 660 138 277 138 508 333 705 595
215 288 271 513 199 801 -35 139 -149 326 -253 413 -122 103 -246 167 -581
302 -314 126 -391 171 -420 240 -23 56 -6 187 49 390 28 102 57 222 63 268 29
196 -45 389 -189 495 -194 142 -442 188 -843 156z"/>
<path d="M3895 4718 c-2 -7 -25 -202 -51 -433 -42 -380 -46 -433 -40 -560 20
-410 61 -675 153 -995 79 -276 170 -488 305 -710 65 -109 214 -322 255 -366
l23 -25 30 21 c17 12 30 26 30 31 0 6 -18 31 -39 57 -74 88 -232 337 -305 482
-287 566 -402 1135 -367 1819 7 130 21 295 32 366 35 228 42 292 36 309 -7 19
-56 22 -62 4z"/>
<path d="M4038 4708 c-29 -23 -68 -561 -68 -938 0 -405 40 -661 159 -1020 89
-267 185 -470 307 -651 166 -244 249 -359 262 -359 16 0 62 30 62 41 0 4 -32
48 -71 96 -332 412 -547 931 -626 1513 -25 187 -25 739 1 980 9 91 20 207 23
258 6 87 5 92 -14 92 -10 0 -26 -6 -35 -12z"/>
<path d="M4156 4709 c-6 -18 -23 -293 -37 -614 -15 -345 5 -619 70 -928 59
-283 183 -611 319 -843 33 -57 306 -449 331 -476 10 -11 100 53 177 124 452
424 269 1133 -332 1285 -53 13 -110 18 -244 18 -104 0 -178 4 -182 9 -4 6 -10
40 -13 76 -3 36 -16 148 -28 250 -17 152 -21 242 -22 500 0 184 6 373 13 453
8 76 12 140 10 142 -2 2 -15 6 -30 10 -19 5 -29 3 -32 -6z"/>
<path d="M3765 4698 c-2 -7 -9 -65 -15 -128 -6 -63 -20 -178 -31 -255 -53
-372 -64 -551 -50 -790 41 -683 174 -1152 464 -1634 67 -112 253 -361 270
-361 15 0 57 36 57 50 0 5 -36 57 -81 117 -203 271 -430 722 -517 1028 -39
137 -55 227 -86 481 -63 508 -60 659 25 1188 16 104 33 218 36 253 l6 63 -37
0 c-20 0 -38 -5 -41 -12z"/>
<path d="M5590 4328 l0 -333 -73 -1 c-58 0 -83 -6 -117 -25 -82 -45 -113 -127
-70 -182 40 -51 140 -44 220 14 68 50 70 59 74 344 2 141 6 258 9 262 8 7 63
-15 100 -40 84 -58 101 -256 30 -364 -20 -30 -9 -42 17 -18 30 27 60 120 67
206 5 71 3 83 -20 131 -27 55 -72 107 -147 171 -42 36 -44 40 -48 102 -4 56
-7 65 -23 65 -18 0 -19 -14 -19 -332z"/>
<path d="M3515 3878 c-344 -212 -526 -363 -673 -558 -117 -157 -147 -358 -75
-506 39 -80 112 -144 275 -238 323 -188 383 -238 401 -333 10 -52 -18 -133
-111 -320 -154 -309 -187 -419 -187 -633 0 -136 2 -150 31 -230 36 -101 88
-184 165 -261 112 -112 336 -239 547 -309 170 -57 277 -74 467 -74 184 0 318
22 494 80 191 63 470 214 395 214 -10 0 -80 -30 -154 -66 -272 -133 -372 -158
-625 -159 -136 0 -200 4 -262 18 -258 55 -470 166 -602 314 -65 72 -136 214
-156 311 -30 146 -14 387 36 535 11 33 53 133 93 221 92 203 110 255 110 336
1 130 -55 187 -353 360 -243 140 -316 191 -369 259 -63 79 -85 148 -80 252 3
72 9 96 40 160 46 97 142 226 237 317 42 40 154 128 250 195 96 67 177 128
179 135 6 20 -19 13 -73 -20z m-402 -1254 c18 -9 84 -50 148 -90 111 -70 147
-99 137 -109 -6 -6 -297 169 -322 194 -25 26 -8 28 37 5z"/>
</g>
</svg>
